<mxfile host="app.diagrams.net" modified="2024-04-22T06:39:46.091Z" agent="Mozilla/5.0 (Macintosh; Intel Mac OS X 10_15_7) AppleWebKit/605.1.15 (KHTML, like Gecko) Version/17.0 Safari/605.1.15" version="24.2.7" etag="aCQXuyD6pW3QQCjJCTC9" type="github">
  <diagram name="Seite-1" id="vnHkc-uB3K4NZCOMyHOg">
    <mxGraphModel>
      <root>
        <mxCell id="0" />
        <mxCell id="1" parent="0" />
      </root>
    </mxGraphModel>
  </diagram>
</mxfile>
